<svg width="49" height="49" viewBox="0 0 49 49" fill="none" xmlns="http://www.w3.org/2000/svg">
<g clip-path="url(#clip0_220_355)">
<path fill-rule="evenodd" clip-rule="evenodd" d="M24.5 0C10.9699 0 0 10.9699 0 24.5C0 38.0301 10.9699 49 24.5 49C38.0301 49 49 38.0301 49 24.5C49 10.9699 38.0301 0 24.5 0ZM35.8558 16.662C35.4883 20.5351 33.8917 29.937 33.0811 34.2755C32.7381 36.113 32.0603 36.7275 31.407 36.7868C29.9839 36.9174 28.9039 35.8455 27.5258 34.9431C25.3698 33.5303 24.1509 32.6503 22.0582 31.2702C19.6388 29.6756 21.2068 28.7998 22.5849 27.3685C22.9463 26.9929 29.2142 21.2905 29.3367 20.774C29.351 20.7086 29.3673 20.4677 29.2224 20.3411C29.0774 20.2145 28.8671 20.2574 28.716 20.2921C28.4996 20.3411 25.0553 22.6176 18.3811 27.1215C17.4032 27.7932 16.5171 28.1199 15.7229 28.1035C14.849 28.0852 13.1667 27.6095 11.9152 27.2011C10.3819 26.703 9.16096 26.4375 9.26713 25.5923C9.32225 25.1513 9.92863 24.7001 11.0883 24.2387C15.8374 22.1558 20.6 20.1039 25.3759 18.083C32.1808 15.2533 33.5936 14.7613 34.5164 14.7449C35.672 14.7286 35.9497 15.682 35.8558 16.662Z" fill="black"/>
</g>
<defs>
<clipPath id="clip0_220_355">
<rect width="49" height="49" fill="white"/>
</clipPath>
</defs>
</svg>
