<svg width="337" height="73" viewBox="0 0 337 73" fill="none" xmlns="http://www.w3.org/2000/svg">
<path d="M194.5 11C191.462 11 189 8.53756 189 5.49999C189 2.46243 191.462 0 194.5 0C197.538 0 200 2.46243 200 5.49999C200 8.53756 197.538 11 194.5 11Z" fill="#FFB12A"/>
<path d="M0 0H170V11H0V0Z" fill="#FFB12A"/>
<path d="M84 31H337V42H84V31Z" fill="#FFB12A"/>
<path d="M84 62H262V73H84V62Z" fill="#E1476D"/>
<path d="M292 62H337V73H292V62Z" fill="#E1476D"/>
<path d="M261.5 73C258.462 73 256 70.5376 256 67.5C256 64.4624 258.462 62 261.5 62C264.538 62 267 64.4624 267 67.5C267 70.5376 264.538 73 261.5 73Z" fill="#7CAFFE"/>
<path d="M41 52L61.0769 31L69 39.3333L55.8462 52L69 64.6667L61.0769 73L41 52Z" fill="white"/>
</svg>
