<svg width="396" height="393" viewBox="0 0 396 393" fill="none" xmlns="http://www.w3.org/2000/svg">
<path d="M382.665 124.873L394.879 218.816L286.282 232.852L284.584 233.071L285.609 234.442L351.043 321.983L274.857 378.591L210.684 292.737L209.638 291.338L208.961 292.948L167.442 391.693L79.8137 355.067L121.616 255.649L122.289 254.047L120.566 254.269L13.3347 268.128L1.12068 174.185L109.717 160.15L111.415 159.93L110.39 158.559L44.957 71.0195L121.143 14.4114L185.316 100.265L186.361 101.664L187.038 100.054L228.558 1.30747L316.186 37.9334L274.384 137.353L273.71 138.955L275.434 138.732L382.665 124.873Z" stroke="#F1EFEC" stroke-width="2"/>
</svg>
