<svg width="267" height="836" viewBox="0 0 267 836" fill="none" xmlns="http://www.w3.org/2000/svg">
<path d="M187.83 718.656C187.83 755.115 175.111 784.221 153.56 804.206C132.018 824.183 101.74 834.969 66.7524 834.969H-53.9966C-57.8626 834.969 -60.9966 831.835 -60.9966 827.969V723.703C-60.9966 719.837 -57.8626 716.703 -53.9966 716.703H-7.58157C15.1713 716.703 30.7977 711.723 40.7674 701.057C50.7524 690.376 55.2694 673.776 55.2694 650.04V510.902C55.2694 484.992 61.9659 463.434 74.7114 448.046C87.4713 432.641 106.211 423.521 130.073 422.354C132.465 422.237 134.368 420.313 134.368 417.984C134.368 415.656 132.465 413.732 130.071 413.61C106.631 412.423 87.8958 403.293 75.0329 387.895C62.1822 372.513 55.2694 350.967 55.2694 325.067V185.929C55.2694 162.193 50.7524 145.593 40.7674 134.912C30.7977 124.246 15.1713 119.266 -7.58157 119.266H-53.9966C-57.8626 119.266 -60.9966 116.132 -60.9966 112.266V8C-60.9966 4.13401 -57.8626 1 -53.9966 1H66.7524C101.74 1 132.018 11.7859 153.56 31.7628C175.111 51.7485 187.83 80.8544 187.83 117.313V295.524C187.83 316.36 193.911 333.167 205.652 345.019C217.397 356.876 234.925 363.896 258.055 364.917C261.869 365.085 265.023 368.166 265.023 372.046V463.923C265.023 467.803 261.868 470.887 258.052 471.044C234.489 472.013 216.965 478.796 205.332 490.422C193.705 502.041 187.83 518.631 187.83 539.492V718.656Z" stroke="#F1EFEC" stroke-width="2"/>
</svg>
