<svg width="55" height="56" viewBox="0 0 55 56" fill="none" xmlns="http://www.w3.org/2000/svg">
<g clip-path="url(#clip0_542_210)">
<path d="M27 1.93292C13.0242 1.93292 1.65394 13.303 1.65394 27.2788C1.65236 31.5593 2.7356 35.7705 4.80252 39.5189L2.71406 51.655C2.65264 52.0118 2.68622 52.3785 2.81144 52.7182C2.93666 53.0579 3.1491 53.3587 3.42741 53.5903C3.70571 53.8219 4.04008 53.9761 4.39689 54.0375C4.75371 54.0989 5.1204 54.0653 5.46011 53.9401L15.9273 50.0818C19.3791 51.7539 23.1645 52.6233 27 52.6247C40.9758 52.6247 52.3461 41.2547 52.3461 27.2788C52.3461 13.303 40.9758 1.93292 27 1.93292ZM27 48.4997C23.5232 48.4994 20.0995 47.6462 17.0292 46.0149C16.7725 45.878 16.4896 45.7969 16.1993 45.777C15.909 45.7571 15.6178 45.7989 15.3448 45.8996L7.38477 48.834L8.993 39.488C9.07659 39.0048 8.98518 38.5077 8.73519 38.086C6.35082 34.0571 5.36553 29.3528 5.93275 24.7058C6.49997 20.0587 8.58786 15.7296 11.8713 12.3925C15.1548 9.0554 19.4495 6.89766 24.0868 6.25525C28.7241 5.61283 33.4437 6.52178 37.5106 8.84058C41.5776 11.1594 44.7637 14.7579 46.5729 19.0758C48.3821 23.3936 48.7127 28.1886 47.5134 32.7139C46.3141 37.2393 43.6521 41.241 39.9419 44.0962C36.2317 46.9513 31.6816 48.4995 27 48.4997ZM33.2018 16.9919C34.8441 18.6382 35.7665 20.8686 35.7665 23.194C35.7665 25.5194 34.8441 27.7499 33.2018 29.3961L29.4142 33.1838C29.2974 33.2912 29.2054 33.4229 29.1447 33.5695C29.084 33.7161 29.0559 33.8742 29.0625 34.0328V35.7132C29.0626 36.118 28.9435 36.5139 28.7202 36.8514C28.4969 37.189 28.1791 37.4535 27.8066 37.6118C28.1762 37.7712 28.491 38.0354 28.7121 38.3717C28.9333 38.7079 29.0512 39.1016 29.0512 39.5041V39.506C29.0509 39.8787 28.9497 40.2443 28.7584 40.564C28.567 40.8838 28.2925 41.1457 27.9642 41.322C27.6358 41.4982 27.2659 41.5822 26.8936 41.5651C26.5214 41.5479 26.1607 41.4302 25.85 41.2244C25.5393 41.0187 25.2901 40.7327 25.129 40.3966C24.9678 40.0606 24.9007 39.6873 24.9348 39.3162C24.9689 38.9451 25.1028 38.5901 25.3225 38.2891C25.5421 37.9881 25.8392 37.7521 26.1822 37.6064C25.8127 37.4468 25.4979 37.1826 25.2767 36.8462C25.0555 36.5099 24.9376 36.1161 24.9375 35.7136V34.0328C24.9317 33.3325 25.0668 32.6382 25.3348 31.9912C25.6028 31.3441 25.9982 30.7576 26.4974 30.2665L30.285 26.4789C30.8558 25.9099 31.2687 25.2022 31.4833 24.4254C31.6978 23.6485 31.7066 22.8292 31.5087 22.0479C31.3108 21.2667 30.9131 20.5503 30.3546 19.9693C29.7962 19.3882 29.0961 18.9624 28.3233 18.7337C27.5505 18.505 26.7315 18.4812 25.9468 18.6648C25.162 18.8484 24.4385 19.2329 23.8473 19.7807C23.2561 20.3284 22.8176 21.0205 22.5748 21.789C22.332 22.5575 22.2933 23.3759 22.4625 24.1639C22.5181 24.429 22.521 24.7024 22.4709 24.9686C22.4209 25.2348 22.3189 25.4886 22.1708 25.7153C22.0227 25.9421 21.8314 26.1375 21.6077 26.2903C21.3841 26.4432 21.1326 26.5505 20.8675 26.6061C20.6024 26.6617 20.329 26.6646 20.0628 26.6145C19.7966 26.5645 19.5429 26.4625 19.3161 26.3144C19.0893 26.1663 18.8939 25.9749 18.7411 25.7513C18.5882 25.5277 18.481 25.2762 18.4253 25.0111C18.0358 23.1625 18.2535 21.2376 19.046 19.5227C19.8386 17.8079 21.1637 16.3947 22.824 15.4936C24.4844 14.5925 26.3914 14.2515 28.2612 14.5215C30.1309 14.7915 31.8641 15.6579 33.2018 16.9919ZM27 -16C2.7383 -16 -17 3.7383 -17 28C-17 52.2617 2.7383 72 27 72C51.2617 72 71 52.2617 71 28C71 3.7383 51.2617 -16 27 -16ZM27 67.875C5.01289 67.875 -12.875 49.9871 -12.875 28C-12.875 6.01289 5.01289 -11.875 27 -11.875C48.9871 -11.875 66.875 6.01289 66.875 28C66.875 49.9871 48.9871 67.875 27 67.875Z" fill="#191919"/>
</g>
<defs>
<clipPath id="clip0_542_210">
<rect width="55" height="56" fill="white"/>
</clipPath>
</defs>
</svg>
